
Plot

Japan's number one extreme reality show is having it's first all-American special!
Six lucky contestants, chosen from thousands of applicants, will have the chance to
win millions of dollars, and all they have to do is stay alive!


Cast

Sarah Joslyn Crowder ... Megan Lowry
Tony Curtis Blondell ... Devon White
Kieran Keller ... Michael Gibbons
Jerry Sprio ... Rick Fisher
Carolina Pla ... Rebecca Galley
Sofia de Medeiros ... Brenda Thompson
Claudine Shiraishi ... Miho Taguchi
Christopher Piggins ... Doctor Ripper
Neil Napier ... Chainsaw Charlie / Preacherman
Takaaki Honda ... The Announcer / Hideo
Koichi Yano ... The Technician
Erik Rutherford ... Steve Taylor - US correspondant
Shigeru Fugita ... DJ Slash


Video
ID : 0
Format : MPEG-4 Visual
Format profile : Advanced Simple@L5
Format settings, BVOP : Yes
Format settings, QPel : No
Format settings, GMC : No warppoints
Format settings, Matrix : Default (H.263)
Codec ID : XVID
Codec ID/Hint : XviD
Duration : 1h 38mn
Bit rate : 1 040 Kbps
Width : 704 pixels
Height : 396 pixels
Display aspect ratio : 16:9
Frame rate : 29.970 fps
Resolution : 8 bits
Colorimetry : 4:2:0
Scan type : Progressive
Bits/(Pixel*Frame) : 0.124
Stream size : 736 MiB (84%)
Writing library : XviD 1.2.1 (UTC 2008-12-04)

Audio
ID : 1
Format : AC-3
Format/Info : Audio Coding 3
Codec ID : 2000
Duration : 1h 38mn
Bit rate mode : Constant
Bit rate : 192 Kbps
Channel(s) : 2 channels
Channel positions : Front: L R
Sampling rate : 48.0 KHz
Resolution : 16 bits
Video delay : 33ms
Stream size : 136 MiB (16%)
Alignment : Split accross interleaves
Interleave, duration : 500 ms (14.98 video frames)
Interleave, preload duration : 500 ms

screen shot






